<svg xmlns="http://www.w3.org/2000/svg" xmlns:xlink="http://www.w3.org/1999/xlink" width="67.245" height="78.344" viewBox="0 0 67.245 78.344"><defs><clipPath id="a"><rect width="67.245" height="78.344" fill="none"/></clipPath></defs><g clip-path="url(#a)"><path d="M80.679,14.515a7.257,7.257,0,1,1,7.257-7.257,7.266,7.266,0,0,1-7.257,7.257m0-12.159a4.9,4.9,0,1,0,4.9,4.9,4.907,4.907,0,0,0-4.9-4.9" transform="translate(-61.891)" fill="#fff"/><path d="M154.705,238.037h-.029a1.178,1.178,0,0,1-1.149-1.206l.368-15.116a1.178,1.178,0,0,1,2.355.057l-.368,15.116a1.178,1.178,0,0,1-1.177,1.149m.934-38.4h-.029a1.178,1.178,0,0,1-1.149-1.206l.191-7.838a1.178,1.178,0,0,1,2.355.057l-.191,7.838a1.178,1.178,0,0,1-1.177,1.149" transform="translate(-129.416 -159.692)" fill="#fff"/><path d="M115.462,316.047a1.178,1.178,0,0,1-1.178-1.178v-31.7a1.178,1.178,0,0,1,2.356,0v31.7a1.178,1.178,0,0,1-1.178,1.178" transform="translate(-96.336 -237.703)" fill="#fff"/><path d="M145.495,108.838a1.178,1.178,0,0,1-1.137-.872c-.013-.047-1.281-4.762-1.758-6.293a6.028,6.028,0,0,0-4.267-4.068l-2.123-.551a1.178,1.178,0,1,1,.592-2.28l2.123.551a8.369,8.369,0,0,1,5.925,5.648c.49,1.575,1.731,6.185,1.783,6.381a1.179,1.179,0,0,1-1.138,1.484" transform="translate(-114.075 -79.858)" fill="#fff"/><path d="M71.245,219.719a1.178,1.178,0,0,1-1.178-1.163l-.628-49.651a1.178,1.178,0,0,1,2.356-.03l.628,49.65a1.178,1.178,0,0,1-1.163,1.193h-.015" transform="translate(-58.534 -141.374)" fill="#fff"/><path d="M3.757,127.14a3.709,3.709,0,0,1-1.148-.18,3.439,3.439,0,0,1-1.273-.734,3.868,3.868,0,0,1-1.211-3.895q.01-.039.023-.078l5.607-16.6c.373-1.1.723-2.246,1.061-3.351q.2-.665.409-1.33a8.369,8.369,0,0,1,5.925-5.648l2.123-.551a1.178,1.178,0,1,1,.592,2.28l-2.123.551a6.027,6.027,0,0,0-4.267,4.068q-.205.66-.406,1.32c-.343,1.12-.7,2.278-1.082,3.414L2.395,122.963a1.5,1.5,0,0,0,.492,1.489.493.493,0,0,1,.08.073c.139.12.732.534,1.8-.027a1.215,1.215,0,0,0,.47-.643L10.968,107a1.178,1.178,0,0,1,2.23.758L7.461,124.635l-.014.039a3.47,3.47,0,0,1-1.586,1.911,4.5,4.5,0,0,1-2.1.555m-.781-2.6h0" transform="translate(0 -79.859)" fill="#fff"/><path d="M274.534,38.989a6.942,6.942,0,1,1,6.942-6.942,6.95,6.95,0,0,1-6.942,6.942m0-11.528a4.586,4.586,0,1,0,4.586,4.586,4.592,4.592,0,0,0-4.586-4.586" transform="translate(-225.568 -21.162)" fill="#fff"/><path d="M338.005,225.392h-.041a1.178,1.178,0,0,1-1.137-1.218l.445-13a1.178,1.178,0,0,1,1.177-1.137h7.3l-8.1-27.179a1.171,1.171,0,0,1-.046-.422l.5-6.9a1.178,1.178,0,1,1,2.349.171l-.487,6.682,8.49,28.486a1.178,1.178,0,0,1-1.129,1.514h-7.738l-.406,11.865a1.178,1.178,0,0,1-1.176,1.137" transform="translate(-283.93 -147.047)" fill="#fff"/><path d="M265.2,227.077a1.178,1.178,0,0,1-1.176-1.137l-.445-13a1.178,1.178,0,0,1,2.354-.081l.445,13a1.178,1.178,0,0,1-1.137,1.218H265.2m-1.751-38.4a1.179,1.179,0,0,1-1.129-1.514l.92-3.087-.487-6.366a1.178,1.178,0,1,1,2.349-.179l.5,6.583a1.178,1.178,0,0,1-.046.426l-.982,3.3a1.179,1.179,0,0,1-1.128.842" transform="translate(-221.081 -148.733)" fill="#fff"/><path d="M307.514,416.43a1.178,1.178,0,0,1-1.178-1.178v-13a1.178,1.178,0,0,1,2.356,0v13a1.178,1.178,0,0,1-1.178,1.178" transform="translate(-258.228 -338.086)" fill="#fff"/><path d="M338.58,145.788a3.716,3.716,0,0,1-3.472-2.395q-.009-.023-.016-.047l-5.817-17.524a1.178,1.178,0,1,1,2.236-.742l5.808,17.5a1.355,1.355,0,0,0,2.578-.811L333.423,122.6a1.155,1.155,0,0,1-.048-.2,5.686,5.686,0,0,0-4.193-4.636l-2.013-.523a1.178,1.178,0,1,1,.592-2.28l2.013.523a8.04,8.04,0,0,1,5.912,6.451l6.458,19.119c.009.026.016.052.023.078a3.711,3.711,0,0,1-3.586,4.653" transform="translate(-275.045 -96.878)" fill="#fff"/><path d="M238.647,126.014a1.179,1.179,0,0,1-1.168-1.343l.369-2.614,0-.016a8.04,8.04,0,0,1,5.929-6.555l2.013-.523a1.178,1.178,0,1,1,.592,2.28l-2.013.523a5.686,5.686,0,0,0-4.192,4.629L239.811,125a1.178,1.178,0,0,1-1.165,1.013" transform="translate(-200.174 -96.878)" fill="#fff"/><path d="M342.352,22.855a6.917,6.917,0,0,1-2.69-.558,3.189,3.189,0,0,0-.74-.214,3.61,3.61,0,0,0-1.705-.006,1.178,1.178,0,0,1-1.735-1.054,5.219,5.219,0,0,1,8.366-4.156c.968.624,1.667,1.075,4.063.062a1.178,1.178,0,0,1,1.449,1.723c-1.076,1.67-3.682,4.2-7.008,4.2M338.2,19.644a9.847,9.847,0,0,1,1.087.111,5.556,5.556,0,0,1,1.289.369,4.6,4.6,0,0,0,4.2-.312,5.923,5.923,0,0,1-2.2-.966,2.891,2.891,0,0,0-2.392-.632,2.536,2.536,0,0,0-1.984,1.43" transform="translate(-282.797 -13.327)" fill="#fff"/><path d="M190.865,197.082a5.335,5.335,0,1,1,5.335-5.335,5.341,5.341,0,0,1-5.335,5.335m0-8.314a2.979,2.979,0,1,0,2.979,2.979,2.982,2.982,0,0,0-2.979-2.979" transform="translate(-156.393 -157.138)" fill="#fff"/><path d="M243.045,323.95h-.014a1.178,1.178,0,0,1-1.164-1.191l.347-30.232a1.178,1.178,0,0,1,1.178-1.164h.014a1.178,1.178,0,0,1,1.164,1.191l-.347,30.232a1.178,1.178,0,0,1-1.178,1.164" transform="translate(-203.883 -245.605)" fill="#fff"/><path d="M213.481,381.217a1.178,1.178,0,0,1-1.178-1.178V360.476a1.178,1.178,0,0,1,2.356,0v19.563a1.178,1.178,0,0,1-1.178,1.178" transform="translate(-178.962 -302.872)" fill="#fff"/><path d="M239.049,272.176a2.831,2.831,0,0,1-2.644-1.824l-.008-.021-3.581-10.012a1.178,1.178,0,1,1,2.218-.793l3.576,10a.47.47,0,0,0,.9-.261c-.333-.948-3.789-10.778-4.085-11.729a3.712,3.712,0,0,0-2.6-2.207l-1.31-.34a1.178,1.178,0,0,1,.592-2.28l1.31.34a6,6,0,0,1,4.253,3.788c.233.75,2.77,7.986,4.079,11.706q.016.045.028.092a2.826,2.826,0,0,1-2.732,3.544" transform="translate(-194.416 -212.988)" fill="#fff"/><path d="M183.059,323.95a1.178,1.178,0,0,1-1.178-1.172l-.142-30.232a1.178,1.178,0,0,1,1.172-1.183h.006a1.178,1.178,0,0,1,1.178,1.172l.142,30.232a1.178,1.178,0,0,1-1.172,1.183Z" transform="translate(-153.199 -245.605)" fill="#fff"/><path d="M140.094,272.168a2.641,2.641,0,0,1-1.8-.69,2.84,2.84,0,0,1-.874-2.846c.008-.031.018-.062.028-.092,1.309-3.721,3.845-10.956,4.079-11.706a6,6,0,0,1,4.253-3.788l1.31-.34a1.178,1.178,0,1,1,.592,2.28l-1.31.34a3.712,3.712,0,0,0-2.6,2.207c-.3.951-3.751,10.78-4.085,11.729a.474.474,0,0,0,.16.448c.058.049.043.023.07.057.077.045.251.091.577-.076a.57.57,0,0,0,.1-.175l3.786-10.011a1.178,1.178,0,1,1,2.2.833L142.8,270.351a2.583,2.583,0,0,1-1.191,1.42,3.237,3.237,0,0,1-1.511.4" transform="translate(-115.761 -212.988)" fill="#fff"/></g></svg>