<svg xmlns="http://www.w3.org/2000/svg" xmlns:xlink="http://www.w3.org/1999/xlink" width="74.878" height="75.397" viewBox="0 0 74.878 75.397"><defs><clipPath id="a"><rect width="74.878" height="75.397" fill="none"/></clipPath></defs><g clip-path="url(#a)"><path d="M74.963,217.88a1.271,1.271,0,0,1-.6-.152c-9.454-5.081-23.034-8.826-38.238-10.546-13.369-1.512-25.967-1.164-32.878.91a1.276,1.276,0,1,1-.733-2.443c7.219-2.166,20.208-2.549,33.9-1,15.519,1.755,29.425,5.6,39.158,10.833a1.276,1.276,0,0,1-.6,2.4" transform="translate(-1.363 -173.153)" fill="#fff"/><path d="M1.275,227.895a1.276,1.276,0,0,1-1.019-2.041,48.536,48.536,0,0,1,12.77-12.086A50.948,50.948,0,0,1,30.122,207a1.275,1.275,0,1,1,.533,2.495C18.35,212.124,9.6,217.641,2.3,227.385a1.274,1.274,0,0,1-1.021.51" transform="translate(0 -175.929)" fill="#fff"/><path d="M44.557,250.019a1.276,1.276,0,0,1-1.182-1.755c4.086-10.09,9.216-17.764,15.682-23.46A51.378,51.378,0,0,1,76.8,214.842a1.276,1.276,0,0,1,.837,2.41c-10.908,3.791-23.228,10.553-31.9,31.97a1.276,1.276,0,0,1-1.183.8" transform="translate(-36.79 -182.558)" fill="#fff"/><path d="M150.464,267.788a1.276,1.276,0,0,1-1.258-1.493c1.922-11.1,5.642-20.366,11.056-27.54,5.714-7.572,11.864-10.892,16.016-12.344a1.275,1.275,0,0,1,.842,2.408c-3.82,1.335-9.492,4.41-14.822,11.473-5.167,6.847-8.726,15.742-10.578,26.439a1.275,1.275,0,0,1-1.255,1.058" transform="translate(-126.811 -192.391)" fill="#fff"/><path d="M267.44,278.831l-.08,0a1.275,1.275,0,0,1-1.194-1.352c.592-9.539,2.532-17.528,5.765-23.745,3.141-6.039,7.505-10.226,12.622-12.111a1.276,1.276,0,1,1,.881,2.394c-9.518,3.5-15.614,15.758-16.723,33.619a1.275,1.275,0,0,1-1.272,1.2" transform="translate(-226.242 -205.315)" fill="#fff"/><path d="M376.144,293.39a1.276,1.276,0,0,1-1.264-1.116c-1.071-8.468-1.032-13.973.13-18.406a15.179,15.179,0,0,1,10.262-11.179,1.276,1.276,0,1,1,.847,2.406c-9.65,3.4-10.486,12.8-8.708,26.859a1.276,1.276,0,0,1-1.267,1.436" transform="translate(-317.995 -223.227)" fill="#fff"/><path d="M299.951,29.506a9.338,9.338,0,0,1-9.328-9.328c0-4.632,7.393-16.982,8.237-18.376L299.951,0l1.091,1.8c.843,1.393,8.237,13.743,8.237,18.376a9.339,9.339,0,0,1-9.328,9.328m0-24.532c-2.567,4.448-6.777,12.342-6.777,15.2a6.777,6.777,0,1,0,13.554,0c0-2.862-4.21-10.756-6.777-15.2" transform="translate(-247.033)" fill="#fff"/><path d="M345.584,189.962a1.276,1.276,0,0,1-1.275-1.275v-7.693a1.275,1.275,0,1,1,2.551,0v7.693a1.276,1.276,0,0,1-1.276,1.275" transform="translate(-292.667 -152.763)" fill="#fff"/><path d="M407.932,67.971A6.778,6.778,0,0,1,402.88,65.9a1.275,1.275,0,1,1,1.794-1.813,4.264,4.264,0,0,0,3.259,1.334,5.27,5.27,0,0,0,5.166-5.356c0-2.066-2.82-8.4-5.16-13.1-.2.422-.441.912-.709,1.479a1.276,1.276,0,0,1-2.305-1.092c1.321-2.788,1.87-3.782,1.892-3.823l1.147-2.068,1.1,2.094c.016.031,1.645,3.142,3.252,6.658,3.336,7.3,3.336,9.22,3.336,9.85a7.823,7.823,0,0,1-7.717,7.907" transform="translate(-342.131 -35.244)" fill="#fff"/><path d="M431.484,212.2a1.276,1.276,0,0,1-1.275-1.275v-8.451a1.275,1.275,0,0,1,2.551,0v8.451a1.276,1.276,0,0,1-1.276,1.275" transform="translate(-365.682 -171.018)" fill="#fff"/><path d="M85.2,26.575a9.328,9.328,0,1,1,9.328-9.328A9.338,9.338,0,0,1,85.2,26.575m0-16.1a6.777,6.777,0,1,0,6.777,6.777A6.785,6.785,0,0,0,85.2,10.47" transform="translate(-64.494 -6.731)" fill="#fff"/></g></svg>