<?xml version="1.0" encoding="UTF-8" standalone="no"?>
<svg id="Layer_1" viewBox="0 0 209.03 209.03" version="1.1" xmlns="http://www.w3.org/2000/svg" xmlns:svg="http://www.w3.org/2000/svg">
  <defs id="defs4">
    <style id="style2">.cls-1{fill:#777;}</style>
  </defs>
  <path class="cls-1" d="M195.31,104.76c.08,49.06-39.47,89.67-88.66,90.66-50.45,1.02-91.45-39.42-92.43-88.69C13.23,56.64,53.43,15.26,103.1,14.37c51.23-.92,92.13,40.19,92.21,90.39Zm-90.45,79.37c43.45,.11,79-35.3,79.12-78.81,.12-43.95-35.35-79.5-79.43-79.63-43.01-.13-78.83,35.56-79.01,78.7-.18,43.94,35.33,79.63,79.33,79.75Z" id="path6" style="fill:#d0383f;fill-opacity:1" />
  <path class="cls-1" d="M111,101.5h3.7c12.45,0,24.89,0,37.34,0,3.91,0,6.47,2.26,6.46,5.69,0,3.52-2.79,6.21-6.54,6.21-15.28,.02-30.55,.02-45.83,0-4.06,0-6.55-1.73-7.37-5.02-.18-.72-.24-1.49-.25-2.24-.01-18.71,0-37.41,0-56.12,0-2.27,.54-4.33,2.13-6.03,2.41-2.57,6.03-2.51,8.35,.13,1.5,1.71,2.01,3.74,2.01,5.96-.01,16.41-.01,32.81-.01,49.22,0,.67,0,1.34,0,2.2Z" id="path8" style="fill:#d0383f;fill-opacity:1" />
</svg>
