<?xml version="1.0" encoding="UTF-8" standalone="no"?>
<svg id="Layer_1" viewBox="0 0 209.03 209.03" version="1.1" xmlns="http://www.w3.org/2000/svg" xmlns:svg="http://www.w3.org/2000/svg">
  <defs id="defs4">
    <style id="style2">.cls-1{fill:#777;}</style>
  </defs>
  <path class="cls-1" d="M105.21,202.05l-4.49-4.79c-.75-.8-1.47-1.56-2.18-2.32-1.54-1.62-2.99-3.16-4.43-4.76-18.62-20.61-32.78-40.31-43.29-60.23-7.57-14.35-12.06-26.68-14.13-38.78-5.13-30.01,4.75-54.79,28.56-71.68,19.05-13.51,43.52-16.24,65.45-7.29,22.18,9.05,37.94,28.36,42.16,51.67,2.12,11.73,1.24,24.1-2.71,37.83-3.73,12.99-9.55,25.75-18.31,40.15-11.47,18.86-25.27,36.6-42.19,54.24l-.07,.09c-.12,.17-.26,.36-.43,.59l-3.93,5.27Zm-.79-184.03c-11.63,0-23.08,3.54-32.82,10.45-20.4,14.47-28.5,34.94-24.08,60.85,1.87,10.92,6,22.2,13.02,35.5,10.07,19.1,23.72,38.06,41.72,57.99,.77,.86,1.56,1.71,2.37,2.57,15.03-16.03,27.42-32.18,37.79-49.24,8.24-13.55,13.69-25.46,17.14-37.48,3.47-12.06,4.27-22.8,2.45-32.83-3.55-19.58-16.81-35.83-35.49-43.44-7.18-2.93-14.68-4.37-22.11-4.37Zm.17,102.45h-.02c-24.63-.01-44.66-20.04-44.66-44.66,0-12.01,4.65-23.28,13.08-31.74,8.44-8.46,19.68-13.11,31.66-13.11h.01c24.63,0,44.67,20.1,44.67,44.8,0,11.94-4.66,23.17-13.12,31.62-8.45,8.44-19.69,13.09-31.63,13.09Zm.07-78.51c-9.04,0-17.52,3.51-23.87,9.88-6.36,6.38-9.87,14.89-9.87,23.97,0,18.55,15.1,33.65,33.66,33.66h.01c9.01,0,17.48-3.51,23.86-9.88,6.38-6.37,9.89-14.83,9.89-23.83,0-18.63-15.11-33.8-33.67-33.8h-.01Z" id="path6" style="fill:#1e55af;fill-opacity:1" />
</svg>
