<?xml version="1.0" encoding="UTF-8"?>
<svg xmlns="http://www.w3.org/2000/svg" xmlns:xlink="http://www.w3.org/1999/xlink" width="32px" height="32px" viewBox="0 0 32 32" version="1.1">
<g id="surface1">
<path style=" stroke:none;fill-rule:nonzero;fill:rgb(0.392157%,0.784314%,0.784314%);fill-opacity:1;" d="M 0 0 L 32 0 L 32 31.96875 L 0 31.96875 Z M 0 0 "/>
<path style=" stroke:none;fill-rule:nonzero;fill:rgb(14.901961%,54.509804%,80%);fill-opacity:1;" d="M 16 0 L 32 0 L 32 31.96875 L 16 31.96875 Z M 16 0 "/>
<path style=" stroke:none;fill-rule:nonzero;fill:rgb(100%,100%,100%);fill-opacity:1;" d="M 27.601562 13.59375 L 25.457031 14.96875 L 26.199219 12.617188 L 24.273438 11.328125 L 26.691406 11.328125 L 27.601562 8.867188 L 28.511719 11.328125 L 30.929688 11.328125 L 29.019531 12.632812 L 29.746094 14.96875 Z M 27.601562 13.59375 "/>
<path style=" stroke:none;fill-rule:nonzero;fill:rgb(100%,100%,100%);fill-opacity:1;" d="M 20.128906 13.59375 L 18 14.96875 L 18.726562 12.617188 L 16.800781 11.328125 L 19.21875 11.328125 L 20.128906 8.867188 L 21.039062 11.328125 L 23.457031 11.328125 L 21.546875 12.632812 L 22.273438 14.96875 Z M 20.128906 13.59375 "/>
<path style=" stroke:none;fill-rule:nonzero;fill:rgb(100%,100%,100%);fill-opacity:1;" d="M 23.875 20.113281 L 21.726562 21.46875 L 22.453125 19.132812 L 20.546875 17.832031 L 22.964844 17.832031 L 23.875 15.386719 L 24.78125 17.847656 L 27.199219 17.847656 L 25.273438 19.132812 L 26.019531 21.488281 Z M 23.875 20.113281 "/>
<path style=" stroke:none;fill-rule:nonzero;fill:rgb(100%,100%,100%);fill-opacity:1;" d="M 15.945312 14.558594 C 15.15625 14.414062 15.027344 13.890625 13.816406 13.890625 C 12.410156 13.890625 12.621094 14.617188 10.941406 14.617188 C 9.261719 14.617188 9.433594 13.890625 8.027344 13.890625 C 6.617188 13.890625 6.722656 14.617188 5.105469 14.617188 C 3.484375 14.617188 3.644531 13.890625 2.234375 13.890625 C 0.925781 13.890625 0.882812 14.5 -0.0976562 14.585938 L -0.0976562 12.265625 C 0.882812 12.179688 0.925781 11.566406 2.234375 11.566406 C 3.644531 11.566406 3.484375 12.296875 5.105469 12.296875 C 6.722656 12.296875 6.617188 11.566406 8.027344 11.566406 C 9.433594 11.566406 9.261719 12.296875 10.941406 12.296875 C 12.621094 12.296875 12.410156 11.566406 13.816406 11.566406 C 15.027344 11.566406 15.15625 12.09375 15.945312 12.238281 Z M 15.945312 14.558594 "/>
<path style=" stroke:none;fill-rule:nonzero;fill:rgb(100%,100%,100%);fill-opacity:1;" d="M 15.945312 17.660156 C 15.15625 17.515625 15.027344 16.992188 13.816406 16.992188 C 12.410156 16.992188 12.621094 17.71875 10.941406 17.71875 C 9.261719 17.71875 9.433594 16.992188 8.027344 16.992188 C 6.617188 16.992188 6.722656 17.71875 5.105469 17.71875 C 3.484375 17.71875 3.644531 16.992188 2.234375 16.992188 C 0.925781 16.992188 0.882812 17.601562 -0.0976562 17.6875 L -0.0976562 15.367188 C 0.882812 15.28125 0.925781 14.667969 2.234375 14.667969 C 3.644531 14.667969 3.484375 15.398438 5.105469 15.398438 C 6.722656 15.398438 6.617188 14.667969 8.027344 14.667969 C 9.433594 14.667969 9.261719 15.398438 10.941406 15.398438 C 12.621094 15.398438 12.410156 14.667969 13.816406 14.667969 C 15.027344 14.667969 15.15625 15.195312 15.945312 15.339844 Z M 15.945312 17.660156 "/>
<path style=" stroke:none;fill-rule:nonzero;fill:rgb(100%,100%,100%);fill-opacity:1;" d="M 15.945312 20.761719 C 15.15625 20.617188 15.027344 20.09375 13.816406 20.09375 C 12.410156 20.09375 12.621094 20.820312 10.941406 20.820312 C 9.261719 20.820312 9.433594 20.09375 8.027344 20.09375 C 6.617188 20.09375 6.722656 20.820312 5.105469 20.820312 C 3.484375 20.820312 3.644531 20.09375 2.234375 20.09375 C 0.925781 20.09375 0.882812 20.703125 -0.0976562 20.789062 L -0.0976562 18.464844 C 0.882812 18.382812 0.925781 17.769531 2.234375 17.769531 C 3.644531 17.769531 3.484375 18.5 5.105469 18.5 C 6.722656 18.5 6.617188 17.769531 8.027344 17.769531 C 9.433594 17.769531 9.261719 18.5 10.941406 18.5 C 12.621094 18.5 12.410156 17.769531 13.816406 17.769531 C 15.027344 17.769531 15.15625 18.292969 15.945312 18.441406 Z M 15.945312 20.761719 "/>
</g>
</svg>
