<?xml version="1.0" encoding="UTF-8" standalone="no"?>
<svg width="31.144" height="27.684" viewBox="0 0 31.144 27.684" version="1.1" id="svg3" xmlns="http://www.w3.org/2000/svg" xmlns:svg="http://www.w3.org/2000/svg">
  <defs id="defs7" />
  <path id="Path_558" data-name="Path 558" d="M28.555,16.292,31.111,5.046A1.3,1.3,0,0,0,29.846,3.46H8.608l-.5-2.423A1.3,1.3,0,0,0,6.841,0H1.3A1.3,1.3,0,0,0,0,1.3v.865a1.3,1.3,0,0,0,1.3,1.3H5.076l3.8,18.569a3.028,3.028,0,1,0,3.625.463H23.835a3.027,3.027,0,1,0,3.439-.563l.3-1.313a1.3,1.3,0,0,0-1.265-1.585H11.794L11.44,17.3H27.29A1.3,1.3,0,0,0,28.555,16.292Z" fill="#d91231" style="fill:#287a2f;fill-opacity:1" />
</svg>
