<?xml version="1.0" encoding="UTF-8" standalone="no"?>
<svg id="Group_368" data-name="Group 368" width="25.503" height="28.856" viewBox="0 0 25.503 28.856" version="1.1" sodipodi:docname="download-blau.svg" inkscape:version="1.1.1 (3bf5ae0d25, 2021-09-20)" xmlns:inkscape="http://www.inkscape.org/namespaces/inkscape" xmlns:sodipodi="http://sodipodi.sourceforge.net/DTD/sodipodi-0.dtd" xmlns="http://www.w3.org/2000/svg" xmlns:svg="http://www.w3.org/2000/svg">
  <sodipodi:namedview id="namedview10" pagecolor="#ffffff" bordercolor="#666666" borderopacity="1.0" inkscape:pageshadow="2" inkscape:pageopacity="0.0" inkscape:pagecheckerboard="0" showgrid="false" inkscape:zoom="25.540615" inkscape:cx="12.744407" inkscape:cy="14.428" inkscape:window-width="2560" inkscape:window-height="1377" inkscape:window-x="1912" inkscape:window-y="-8" inkscape:window-maximized="1" inkscape:current-layer="Group_368" />
  <defs id="defs4">
    <clipPath id="clip-path">
      <rect id="Rectangle_806" data-name="Rectangle 806" width="25.503" height="28.856" fill="#d91231" />
    </clipPath>
  </defs>
  <g id="Group_365" data-name="Group 365" clip-path="url(#clip-path)" style="fill:#1e55af;fill-opacity:1">
    <path id="Path_559" data-name="Path 559" d="M23.615,149.428H1.888A1.888,1.888,0,0,1,0,147.54v-6.922a1.885,1.885,0,1,1,3.769,0l.006,5.034H21.728v-5.034a1.885,1.885,0,1,1,3.769,0l.006,6.922a1.888,1.888,0,0,1-1.888,1.888" transform="translate(0 -120.572)" fill="#d91231" style="fill:#1e55af;fill-opacity:1" />
    <path id="Path_560" data-name="Path 560" d="M50.029,11.865h-4.4V2.516a2.514,2.514,0,1,0-5.028,0l-.006,9.349h-4.4a1.258,1.258,0,0,0-.956,2.068l6.922,8.181a1.243,1.243,0,0,0,1.912,0l6.922-8.181a1.252,1.252,0,0,0-.956-2.068" transform="translate(-30.361 0.001)" fill="#d91231" style="fill:#1e55af;fill-opacity:1" />
  </g>
</svg>
