<svg xmlns="http://www.w3.org/2000/svg" width="45.107" height="30.417" viewBox="0 0 45.107 30.417"><path d="M43.789,45.939l-4.123-3.972a4.6,4.6,0,0,0-3.193-1.27H33.83V34.173A2.213,2.213,0,0,0,31.575,32H2.255A2.213,2.213,0,0,0,0,34.173V56.986a5.536,5.536,0,0,0,5.638,5.432,5.7,5.7,0,0,0,4.511-2.2,5.679,5.679,0,0,0,4.511,2.2A5.422,5.422,0,0,0,20.186,55.9h11.5a5.034,5.034,0,0,0-.113,1.086A5.639,5.639,0,1,0,42.739,55.9h1.24a1.111,1.111,0,0,0,1.128-1.086V49.008A4.252,4.252,0,0,0,43.789,45.939ZM5.638,59.158a2.174,2.174,0,1,1,0-4.345,2.174,2.174,0,1,1,0,4.345Zm9.021,0a2.174,2.174,0,1,1,2.255-2.173A2.222,2.222,0,0,1,14.66,59.158ZM33.83,43.95h2.643a1.141,1.141,0,0,1,.8.319l3.052,2.94H33.83Zm3.383,15.209a2.174,2.174,0,1,1,2.255-2.173A2.222,2.222,0,0,1,37.213,59.158Z" transform="translate(0 -32)" fill="#fff"/></svg>