<svg xmlns="http://www.w3.org/2000/svg" width="36.789" height="31.502" viewBox="0 0 36.789 31.502"><path d="M18.395,0a7.9,7.9,0,0,0-8.048,7.753c0,3.462,5.26,9.771,7.275,12.061a1.032,1.032,0,0,0,1.546,0c2.015-2.29,7.275-8.6,7.275-12.061A7.9,7.9,0,0,0,18.395,0Zm0,10.337a2.634,2.634,0,0,1-2.683-2.584,2.684,2.684,0,0,1,5.365,0A2.634,2.634,0,0,1,18.395,10.337ZM1.285,13.287A1.971,1.971,0,0,0,0,15.115v15.4a1.019,1.019,0,0,0,1.4.914l8.818-3.866V13.224a18.313,18.313,0,0,1-1.357-2.856ZM18.395,22.13a3.1,3.1,0,0,1-2.332-1.044c-1.256-1.427-2.591-3.053-3.8-4.72v11.2L24.526,31.5V16.366c-1.208,1.667-2.543,3.293-3.8,4.72A3.1,3.1,0,0,1,18.395,22.13ZM35.388,9.916,26.57,13.782V31.5L35.5,28.06a1.971,1.971,0,0,0,1.285-1.828V10.83a1.019,1.019,0,0,0-1.4-.914Z" fill="#fff"/></svg>