<svg xmlns="http://www.w3.org/2000/svg" width="35.516" height="26.611" viewBox="0 0 35.516 26.611"><path d="M0,34.851V55.76a2.908,2.908,0,0,0,2.96,2.851h2.96V32H2.96A2.908,2.908,0,0,0,0,34.851Zm7.892,23.76H27.624V32H7.892ZM11.839,43.88a.486.486,0,0,1,.493-.475h3.453V40.078a.486.486,0,0,1,.493-.475h2.96a.486.486,0,0,1,.493.475V43.4h3.453a.486.486,0,0,1,.493.475v2.851a.486.486,0,0,1-.493.475H19.731v3.326a.486.486,0,0,1-.493.475h-2.96a.486.486,0,0,1-.493-.475V47.206H12.332a.486.486,0,0,1-.493-.475ZM32.556,32H29.6V58.611h2.96a2.908,2.908,0,0,0,2.96-2.851V34.851A2.908,2.908,0,0,0,32.556,32Z" transform="translate(0 -32)" fill="#fff"/></svg>