<?xml version="1.0" encoding="UTF-8" standalone="no"?>
<!-- Svg Vector Icons : http://www.onlinewebfonts.com/icon -->

<svg version="1.1" x="0px" y="0px" viewBox="0 0 980 980" enable-background="new 0 0 1000 1000" xml:space="preserve" id="svg10" width="980" height="980" xmlns="http://www.w3.org/2000/svg" xmlns:svg="http://www.w3.org/2000/svg"><defs id="defs14" />
<metadata id="metadata2"> Svg Vector Icons : http://www.onlinewebfonts.com/icon </metadata>
<g id="g8" style="fill:#ffffff" transform="translate(-10,-10)"><g transform="matrix(1,0,0,-1,0,1008)" id="g6" style="fill:#ffffff"><path d="M 500,998 C 634.8,998 750.2,950 846.1,854.1 942,758.2 990,642.8 990,508 990,373.2 942,257.8 846.1,161.9 750.2,66 634.8,18 500,18 365.2,18 249.8,66 153.9,161.9 58,257.8 10,373.2 10,508 10,642.8 58,758.2 153.9,854.1 249.8,950 365.2,998 500,998 Z m 0,-840 c 96.6,0 179.1,34.2 247.4,102.6 C 815.8,328.9 850,411.4 850,508 850,604.6 815.8,687.1 747.4,755.4 679.1,823.8 596.6,858 500,858 403.4,858 320.9,823.8 252.6,755.4 184.2,687.1 150,604.6 150,508 150,411.4 184.2,328.9 252.6,260.6 320.9,192.2 403.4,158 500,158 Z m 70,420 H 780 V 438 H 570 V 228 H 430 V 438 H 220 v 140 h 210 v 210 h 140 z" id="path4" style="fill:#ffffff" /></g></g>
</svg>
