<svg xmlns="http://www.w3.org/2000/svg" width="30.772" height="33.878" viewBox="0 0 30.772 33.878"><path d="M29.673,2.117H21.43L20.785.88A1.656,1.656,0,0,0,19.308,0H11.457a1.636,1.636,0,0,0-1.47.88L9.341,2.117H1.1A1.079,1.079,0,0,0,0,3.176V5.293A1.079,1.079,0,0,0,1.1,6.352H29.673a1.079,1.079,0,0,0,1.1-1.059V3.176A1.079,1.079,0,0,0,29.673,2.117Z" transform="translate(0 0)" fill="#fff"/><path d="M32,128l1.456,22.431a3.248,3.248,0,0,0,3.29,2.978H53.63a3.248,3.248,0,0,0,3.29-2.978L58.376,128Zm9.878,13.025-1.412-.85L38.7,142.893a1.07,1.07,0,0,0,.94,1.635h1.8a.408.408,0,0,1,.416.4v1.336a.408.408,0,0,1-.416.4h-1.8a3.206,3.206,0,0,1-2.822-4.9l1.761-2.717-1.412-.85a.528.528,0,0,1,.169-.974l3.821-.85a.555.555,0,0,1,.665.4l.882,3.681A.551.551,0,0,1,41.878,141.025Zm1.174-5.593-1.176-.708a.392.392,0,0,1-.132-.552l.623-.96a3.4,3.4,0,0,1,5.643,0l1.43,2.206,1.41-.849a.551.551,0,0,1,.834.573l-.882,3.681a.555.555,0,0,1-.665.4l-3.821-.85a.528.528,0,0,1-.169-.974l1.412-.85-1.431-2.206a1.133,1.133,0,0,0-1.88,0l-.623.96A.425.425,0,0,1,43.052,135.432Zm7.677,11.233H47.406v1.6a.558.558,0,0,1-.947.378l-2.773-2.671a.52.52,0,0,1,0-.756l2.773-2.67a.558.558,0,0,1,.947.378v1.6h3.327a1.07,1.07,0,0,0,.94-1.635l-.955-1.473a.392.392,0,0,1,.132-.552l1.174-.706a.425.425,0,0,1,.573.128l.954,1.471A3.206,3.206,0,0,1,50.729,146.665Z" transform="translate(-29.802 -119.53)" fill="#fff"/></svg>