<?xml version="1.0" encoding="UTF-8" standalone="no"?>
<svg aria-hidden="true" focusable="false" data-prefix="fab" data-icon="facebook" class="svg-inline--fa fa-facebook fa-w-16" role="img" viewBox="0 0 500 500" version="1.1" id="svg4" width="500" height="500" xmlns="http://www.w3.org/2000/svg" xmlns:svg="http://www.w3.org/2000/svg">
  <defs id="defs8" />
  <g id="g1543" style="fill:#ffffff">
    <g id="g1525" style="fill:#ffffff">
      <g id="g1405" style="fill:#ffffff">
        <g id="g1287" style="fill:#ffffff">
          <g id="g1171" style="fill:#ffffff">
            <g id="g1057" style="fill:#ffffff">
              <g id="g1076" transform="matrix(0.896,0,0,0.896,0,32.000001)" style="fill:#ffffff">
                <rect style="fill:#ffffff;stroke-width:1.09404" id="rect847" width="72.54464" height="558.03571" x="2.220446e-16" y="-35.714287" />
                <rect style="fill:#ffffff;stroke-width:1.09404" id="rect847-4" width="72.54464" height="558.03571" x="485.49106" y="-35.714287" />
                <rect style="fill:#ffffff;stroke-width:1.09404" id="rect847-8" width="558.03571" height="72.54464" x="0" y="-35.714287" />
                <rect style="fill:#ffffff;stroke-width:1.09404" id="rect847-8-9" width="558.03571" height="72.54464" x="3.0517578e-05" y="449.77676" />
              </g>
              <rect style="fill:#ffffff;stroke-width:1.00157" id="rect947" width="443.22388" height="60.439621" x="27.788332" y="420.29849" />
            </g>
            <rect style="fill:#ffffff;stroke-width:1.00157" id="rect1081" width="156.30936" height="167.4247" x="1.9895197e-16" y="2.3437494e-08" />
          </g>
          <rect style="fill:#ffffff;stroke-width:1.00157" id="rect1195" width="181.93045" height="154.11459" x="36.819538" y="279.38336" />
        </g>
        <rect style="fill:#ffffff;stroke-width:1.00157" id="rect1311" width="177.95216" height="174.26114" x="281.25" y="279.38336" />
      </g>
      <rect style="fill:#ffffff;stroke-width:1.00157" id="rect1429" width="126.4369" height="151.44641" x="356.38535" y="37.514248" />
    </g>
    <path fill="currentColor" d="M 450,221.21705 C 450,110.06086 360.48387,20 249.99999,20 139.51612,20 50,110.06086 50,221.21705 50,321.64706 123.13709,404.8925 218.74999,420 V 279.38337 h -50.80645 v -58.16632 h 50.80645 v -44.33267 c 0,-50.42597 29.83871,-78.27991 75.54034,-78.27991 21.88708,0 44.77417,3.92698 44.77417,3.92698 v 49.49289 H 313.83869 C 289,152.02434 281.25,167.53753 281.25,183.44828 v 37.76877 h 55.46774 l -8.87097,58.16632 H 281.25 V 420 C 376.8629,404.8925 450,321.64706 450,221.21705 Z" id="path2" style="stroke-width:0.808902;fill:#ffffff" />
  </g>
</svg>
