<?xml version="1.0" encoding="iso-8859-1"?>
<!-- Generator: Adobe Illustrator 19.0.0, SVG Export Plug-In . SVG Version: 6.00 Build 0)  -->
<svg version="1.1" fill="#d91231" id="Layer_1" xmlns="http://www.w3.org/2000/svg" xmlns:xlink="http://www.w3.org/1999/xlink" x="0px" y="0px"
	 viewBox="0 0 490.667 490.667" style="enable-background:new 0 0 490.667 490.667;" xml:space="preserve">
<g>
	<g>
		<path d="M245.333,0C110.059,0,0,110.059,0,245.333s110.059,245.333,245.333,245.333s245.333-110.059,245.333-245.333
			S380.608,0,245.333,0z M245.333,85.333c29.397,0,53.333,23.936,53.333,53.333S274.731,192,245.333,192S192,168.064,192,138.667
			S215.936,85.333,245.333,85.333z M309.333,405.333H202.667c-17.643,0-32-14.357-32-32c0-17.643,14.357-32,32-32h10.667v-64
			h-10.667c-17.643,0-32-14.357-32-32s14.357-32,32-32H288c5.888,0,10.667,4.779,10.667,10.667v117.333h10.667
			c17.643,0,32,14.357,32,32C341.333,390.976,326.976,405.333,309.333,405.333z"/>
	</g>
</g>

</svg>
