<?xml version="1.0" encoding="UTF-8" standalone="no"?>
<svg aria-hidden="true" focusable="false" data-prefix="fab" data-icon="instagram-square" class="svg-inline--fa fa-instagram-square fa-w-14" role="img" viewBox="0 0 558.03575 488.28125" version="1.1" id="svg4" width="500.00003" height="500" xmlns="http://www.w3.org/2000/svg" xmlns:svg="http://www.w3.org/2000/svg">
  <defs id="defs8" />
  <g id="g1221" style="fill:#ffffff">
    <path fill="currentColor" d="m 282.03564,193.73144 a 53.34,53.34 0 1 0 53.36,53.34 53.38,53.38 0 0 0 -53.36,-53.34 z m 124.71,-41 a 54,54 0 0 0 -30.41,-30.41 c -21,-8.29 -71,-6.43 -94.3,-6.43 -23.3,0 -73.25,-1.93 -94.31,6.43 a 54,54 0 0 0 -30.41,30.41 c -8.27999,21 -6.42999,71.05 -6.42999,94.33 0,23.28 -1.85,73.27 6.46999,94.34 a 54,54 0 0 0 30.41,30.41 c 21,8.29 71,6.43 94.31,6.43 23.31,0 73.24,1.93 94.3,-6.43 a 54,54 0 0 0 30.41,-30.41 c 8.35,-21 6.43,-71.05 6.43,-94.33 0,-23.28 1.92,-73.26 -6.43,-94.33 z m -124.71,176.34 a 82,82 0 1 1 82,-82 81.9,81.9 0 0 1 -82,82 z m 85.38,-148.3 a 19.14,19.14 0 1 1 19.13,-19.14 19.1,19.1 0 0 1 -19.09,19.18 z m 90.62,-157.700011 H 106.03571 a 48,48 0 0 0 -47.999993,48 V 423.07144 a 48,48 0 0 0 47.999993,48 h 351.99993 a 48,48 0 0 0 48,-48 V 71.071429 a 48,48 0 0 0 -48,-48 z m -17.12,290.000011 c -1.29,25.63 -7.14,48.34 -25.85,67 -18.71,18.66 -41.4,24.63 -67,25.85 -26.41,1.49 -105.59,1.49 -132,0 -25.63,-1.29 -48.26,-7.15 -66.99999,-25.85 -18.73997,-18.7 -24.62996,-41.42 -25.84996,-67 -1.49,-26.42 -1.49,-105.61 0,-132 1.29,-25.63 7.06999,-48.34 25.84996,-67 18.77999,-18.660008 41.46999,-24.560011 66.99999,-25.780011 26.41,-1.49 105.59,-1.49 132,0 25.63,1.29 48.33,7.150003 67,25.850011 18.67,18.7 24.63,41.42 25.85,67.05 1.49,26.32 1.49,105.44 0,131.88 z" id="path2" style="fill:#ffffff" />
    <g id="g1076" style="fill:#ffffff">
      <rect style="fill:#ffffff;stroke-width:1.09404" id="rect847" width="72.54464" height="558.03571" x="2.220446e-16" y="-35.714287" />
      <rect style="fill:#ffffff;stroke-width:1.09404" id="rect847-4" width="72.54464" height="558.03571" x="485.49106" y="-35.714287" />
      <rect style="fill:#ffffff;stroke-width:1.09404" id="rect847-8" width="558.03571" height="72.54464" x="0" y="-35.714287" />
      <rect style="fill:#ffffff;stroke-width:1.09404" id="rect847-8-9" width="558.03571" height="72.54464" x="3.0517578e-05" y="449.77676" />
    </g>
  </g>
</svg>
