<?xml version="1.0" encoding="UTF-8" standalone="no"?>
<svg
   viewBox="0 0 615.17102 615.1712"
   version="1.1"
   id="svg4"
   width="615.17102"
   height="615.1712"
   xmlns="http://www.w3.org/2000/svg"
   xmlns:svg="http://www.w3.org/2000/svg">
  <defs
     id="defs8" />
  <!--! Font Awesome Pro 6.2.0 by @fontawesome - https://fontawesome.com License - https://fontawesome.com/license (Commercial License) Copyright 2022 Fonticons, Inc. -->
  <g
     id="g1382"
     transform="translate(83.761707,42.031151)">
    <path
       d="M 415.71094,32.468086 H 28.141367 c -17.75898,0 -32.1881523,14.48485 -32.1881523,32.266252 V 447.73375 C -4.0467853,465.51515 10.382387,480 28.141367,480 H 415.71094 C 433.46992,480 448,465.51515 448,447.73375 V 64.734338 C 448,46.952936 433.46992,32.468086 415.71094,32.468086 Z M 132.57628,416.06687 H 65.576492 V 202.49026 H 132.67719 V 416.06687 Z M 99.076388,173.32076 c -21.492403,0 -38.847771,-17.28192 -38.847771,-38.45977 0,-21.17785 17.355368,-38.459773 38.847771,-38.459773 21.391502,0 38.847772,17.281923 38.847772,38.459773 0,21.27775 -17.35537,38.45977 -38.847772,38.45977 z M 383.7246,416.06687 H 316.72481 V 312.17553 c 0,-24.77409 -0.50452,-56.64076 -34.81164,-56.64076 -34.91254,0 -40.26042,26.97179 -40.26042,54.84264 V 416.06687 H 174.65296 V 202.49026 h 64.2754 v 29.16949 h 0.90813 c 8.9804,-16.78245 30.87641,-34.46396 63.46818,-34.46396 67.80702,0 80.41993,44.25372 80.41993,101.79353 z"
       id="path2"
       style="fill:#ffffff;stroke-width:1.00398" />
    <rect
       style="fill:none;stroke:#ffffff;stroke-width:100;stroke-miterlimit:4;stroke-dasharray:none;stroke-opacity:1;paint-order:fill markers stroke"
       id="rect1361"
       width="515.17102"
       height="515.1712"
       x="-33.761707"
       y="7.9688492" />
    <rect
       style="fill:none;stroke:#ffffff;stroke-width:100;stroke-miterlimit:4;stroke-dasharray:none;stroke-opacity:1;paint-order:fill markers stroke"
       id="rect863"
       width="501.95251"
       height="501.95251"
       x="-28.543209"
       y="19.187561" />
  </g>
</svg>
