<svg xmlns="http://www.w3.org/2000/svg" width="36.701" height="30.936" viewBox="0 0 36.701 30.936"><path d="M18.351,32C8.215,32,0,38.429,0,46.363a12.534,12.534,0,0,0,4.086,9.025A17.46,17.46,0,0,1,.158,62a.534.534,0,0,0-.108.6.562.562,0,0,0,.523.331,16.754,16.754,0,0,0,10.078-3.549,22.6,22.6,0,0,0,7.7,1.34C28.486,60.726,36.7,54.3,36.7,46.363S28.486,32,18.351,32Zm.012,23.3A2.447,2.447,0,1,1,20.9,52.85,2.5,2.5,0,0,1,18.362,55.3Zm2.207-6.982v.071a.65.65,0,0,1-.662.638h-3.09a.65.65,0,0,1-.662-.638v-.213c0-2.183,1.718-3.055,3.016-3.756,1.113-.6,1.8-1.01,1.8-1.806,0-1.053-1.394-1.752-2.522-1.752-1.5,0-2.176.7-3.162,1.9a.679.679,0,0,1-.92.113l-1.915-1.4a.624.624,0,0,1-.15-.864,7.213,7.213,0,0,1,6.432-3.389c3.11,0,6.431,2.339,6.431,5.422C25.16,46.738,20.57,46.8,20.57,48.314Z" transform="translate(0 -32)" fill="#fff"/></svg>