<svg xmlns="http://www.w3.org/2000/svg" width="44.749" height="24.254" viewBox="0 0 44.749 24.254"><path d="M40.7,86.791H4.054A3.993,3.993,0,0,0,0,90.7V107.14a3.993,3.993,0,0,0,4.054,3.905H40.7a3.993,3.993,0,0,0,4.054-3.905V90.7A3.993,3.993,0,0,0,40.7,86.791ZM29.841,106.542h-4.1l5.689-5.788H24.243l.018,5.789H20.577v-5.754l-7.422-.017,6.045,5.772H14.621L6.681,98.906l8.12-7.612h4.257l-6.063,5.737,7.476.017V91.294h3.738v5.755l7.261-.017L25.6,91.294H30.11l7.959,7.612Z" transform="translate(0 -86.791)" fill="#fff"/></svg>