<?xml version="1.0" encoding="UTF-8" standalone="no"?>
<svg aria-hidden="true" focusable="false" data-prefix="fab" data-icon="twitter-square" class="svg-inline--fa fa-twitter-square fa-w-14" role="img" viewBox="0 0 500 500" version="1.1" id="svg4" width="500" height="500" xmlns="http://www.w3.org/2000/svg" xmlns:svg="http://www.w3.org/2000/svg">
  <defs id="defs8" />
  <g id="g959" style="fill:#ffffff">
    <path fill="currentColor" d="M 424,28 H 72 C 45.5,28 24,49.5 24,76 v 352 c 0,26.5 21.5,48 48,48 h 352 c 26.5,0 48,-21.5 48,-48 V 76 C 472,49.5 450.5,28 424,28 Z m -48.9,158.8 c 0.2,2.8 0.2,5.7 0.2,8.5 0,86.7 -66,186.6 -186.6,186.6 -37.2,0 -71.7,-10.8 -100.7,-29.4 5.3,0.6 10.4,0.8 15.8,0.8 30.7,0 58.9,-10.4 81.4,-28 -28.8,-0.6 -53,-19.5 -61.3,-45.5 10.1,1.5 19.2,1.5 29.6,-1.2 -30,-6.1 -52.5,-32.5 -52.5,-64.4 v -0.8 c 8.7,4.9 18.9,7.9 29.6,8.3 a 65.447,65.447 0 0 1 -29.2,-54.6 c 0,-12.2 3.2,-23.4 8.9,-33.1 32.3,39.8 80.8,65.8 135.2,68.6 -9.3,-44.5 24,-80.6 64,-80.6 18.9,0 35.9,7.9 47.9,20.7 14.8,-2.8 29,-8.3 41.6,-15.8 -4.9,15.2 -15.2,28 -28.8,36.1 13.2,-1.4 26,-5.1 37.8,-10.2 -8.9,13.1 -20.1,24.7 -32.9,34 z" id="path2" style="fill:#ffffff" />
    <g id="g950" style="fill:#ffffff">
      <g id="g1076" transform="matrix(0.896,0,0,0.896,0,32.000001)" style="fill:#ffffff">
        <rect style="fill:#ffffff;stroke-width:1.09404" id="rect847" width="72.54464" height="558.03571" x="2.220446e-16" y="-35.714287" />
        <rect style="fill:#ffffff;stroke-width:1.09404" id="rect847-4" width="72.54464" height="558.03571" x="485.49106" y="-35.714287" />
        <rect style="fill:#ffffff;stroke-width:1.09404" id="rect847-8" width="558.03571" height="72.54464" x="0" y="-35.714287" />
        <rect style="fill:#ffffff;stroke-width:1.09404" id="rect847-8-9" width="558.03571" height="72.54464" x="3.0517578e-05" y="449.77676" />
      </g>
    </g>
  </g>
</svg>
