<svg xmlns="http://www.w3.org/2000/svg" xmlns:xlink="http://www.w3.org/1999/xlink" width="48.415" height="78.344" viewBox="0 0 48.415 78.344"><defs><clipPath id="a"><rect width="48.415" height="78.344" fill="none"/></clipPath></defs><g clip-path="url(#a)"><path d="M166.237,14.5a7.25,7.25,0,1,1,7.25-7.25,7.259,7.259,0,0,1-7.25,7.25m0-12.15a4.9,4.9,0,1,0,4.9,4.9,4.905,4.905,0,0,0-4.9-4.9" transform="translate(-134.071)" fill="#fff"/><path d="M236.206,207.772h-.059a1.175,1.175,0,0,1-1.115-1.232l1.859-37.4-2.616-14.052a1.175,1.175,0,0,1,2.311-.43l2.641,14.187a1.178,1.178,0,0,1,.018.274l-1.866,37.534a1.175,1.175,0,0,1-1.173,1.117" transform="translate(-197.543 -129.613)" fill="#fff"/><path d="M158.344,440.052a1.175,1.175,0,0,1-1.173-1.111l-.5-8.544a1.175,1.175,0,0,1,2.347-.129l.5,8.544a1.176,1.176,0,0,1-1.109,1.238l-.066,0" transform="translate(-132.115 -361.902)" fill="#fff"/><path d="M201.08,316.461a1.175,1.175,0,0,1-1.175-1.175V283.543a1.175,1.175,0,0,1,2.351,0v31.742a1.175,1.175,0,0,1-1.175,1.175" transform="translate(-168.577 -238.117)" fill="#fff"/><path d="M147.051,97.435a1.176,1.176,0,0,1-.309-2.31l4.328-1.221a1.175,1.175,0,1,1,.619,2.268l-4.328,1.221a1.18,1.18,0,0,1-.31.042" transform="translate(-123.015 -79.153)" fill="#fff"/><path d="M230.915,128.947a3.85,3.85,0,0,1-3.757-3.036l-1.429-6.2a1.175,1.175,0,1,1,2.291-.528l1.431,6.21,0,.02a1.494,1.494,0,0,0,2.951-.428l-3.955-22.292,0-.025a6.059,6.059,0,0,0-4.468-4.94l-2.122-.551a1.175,1.175,0,1,1,.591-2.275l2.122.551a8.408,8.408,0,0,1,6.2,6.842l3.961,22.327c.005.028.009.056.012.084a3.846,3.846,0,0,1-3.826,4.242" transform="translate(-186.347 -79.996)" fill="#fff"/><path d="M26.44,176.556a1.049,1.049,0,0,1-.71-1.82l4.654-4.281a12.27,12.27,0,0,0,4.285-8.952v-1.782H14.2V161.5a12.271,12.271,0,0,0,4.285,8.952l4.654,4.28a1.048,1.048,0,1,1-1.42,1.543L17.067,172A14.337,14.337,0,0,1,12.1,161.5v-2.83a1.049,1.049,0,0,1,1.049-1.049H35.717a1.049,1.049,0,0,1,1.048,1.049v2.83A14.336,14.336,0,0,1,31.8,172l-4.654,4.281a1.046,1.046,0,0,1-.71.277" transform="translate(-10.208 -132.922)" fill="#fff"/><path d="M25.548,137.835a.969.969,0,0,1-.4-.088,1.067,1.067,0,0,1-.518-1.381l1-2.386H2.54l1,2.386a1.067,1.067,0,0,1-.518,1.381.99.99,0,0,1-1.323-.54L.084,133.352a1.088,1.088,0,0,1,.08-.994A1,1,0,0,1,1,131.883h26.16a1,1,0,0,1,.841.475,1.088,1.088,0,0,1,.08.994l-1.616,3.854a1,1,0,0,1-.921.628" transform="translate(0 -111.215)" fill="#fff"/><path d="M25.548,373.115a.968.968,0,0,0-.4.088,1.067,1.067,0,0,0-.518,1.381l1,2.385H2.54l1-2.385a1.067,1.067,0,0,0-.518-1.381.99.99,0,0,0-1.323.54L.084,377.6a1.088,1.088,0,0,0,.08.994,1,1,0,0,0,.841.475h26.16a1,1,0,0,0,.841-.475,1.088,1.088,0,0,0,.08-.994l-1.616-3.854a1,1,0,0,0-.921-.628" transform="translate(0 -314.642)" fill="#fff"/><path d="M35.717,283.984H13.154a1.049,1.049,0,0,1-1.049-1.048v-2.83a14.337,14.337,0,0,1,4.962-10.5l4.654-4.281a1.049,1.049,0,1,1,1.42,1.543l-4.654,4.281a12.272,12.272,0,0,0-4.285,8.953v1.782H34.669v-1.782a12.271,12.271,0,0,0-4.285-8.953l-4.654-4.28a1.049,1.049,0,1,1,1.42-1.543l4.654,4.28a14.337,14.337,0,0,1,4.962,10.5v2.83a1.048,1.048,0,0,1-1.048,1.048" transform="translate(-10.208 -223.515)" fill="#fff"/></g></svg>