<svg xmlns="http://www.w3.org/2000/svg" xmlns:xlink="http://www.w3.org/1999/xlink" width="72.809" height="70.577" viewBox="0 0 72.809 70.577"><defs><clipPath id="a"><rect width="72.809" height="70.577" fill="none"/></clipPath></defs><g clip-path="url(#a)"><path d="M221.322,227.878a22.4,22.4,0,1,1,22.4-22.4,22.423,22.423,0,0,1-22.4,22.4m0-41.982a19.586,19.586,0,1,0,19.587,19.585A19.608,19.608,0,0,0,221.322,185.9" transform="translate(-170.909 -157.301)" fill="#fff"/><path d="M22.892,17.354C11.517,17.354,0,14.374,0,8.678,0,3.042,11.794,0,22.892,0,33.95,0,45.7,3.042,45.7,8.678c0,5.7-11.475,8.677-22.81,8.677m0-14.544C10.632,2.81,2.81,6.285,2.81,8.678c0,2.45,7.64,5.866,20.082,5.866,12.391,0,20-3.417,20-5.866,0-2.393-7.791-5.868-20-5.868" fill="#fff"/><path d="M25.289,371.472h-2.4c-11.376,0-22.892-2.953-22.892-8.6a1.405,1.405,0,1,1,2.81,0c0,2.359,7.822,5.785,20.082,5.785h2.4a1.405,1.405,0,1,1,0,2.81" transform="translate(0 -310.563)" fill="#fff"/><path d="M305.958,67.179a1.405,1.405,0,0,1-1.405-1.405V53.047a1.405,1.405,0,0,1,2.81,0V65.773a1.405,1.405,0,0,1-1.405,1.405" transform="translate(-261.661 -44.369)" fill="#fff"/><path d="M1.405,98.086A1.405,1.405,0,0,1,0,96.681V53.046a1.405,1.405,0,0,1,2.81,0V96.681a1.405,1.405,0,0,1-1.405,1.405" transform="translate(0 -44.368)" fill="#fff"/><path d="M24.877,217.812H22.892C11.517,217.812,0,214.831,0,209.134a1.405,1.405,0,1,1,2.81,0c0,2.45,7.64,5.868,20.082,5.868h1.984a1.405,1.405,0,1,1,0,2.81" transform="translate(0 -178.474)" fill="#fff"/><path d="M22.892,294.683C11.517,294.683,0,291.7,0,286.005a1.405,1.405,0,1,1,2.81,0c0,2.45,7.64,5.868,20.082,5.868a1.4,1.4,0,1,1,0,2.81" transform="translate(0 -244.518)" fill="#fff"/><path d="M22.892,140.94C11.794,140.94,0,137.9,0,132.262a1.405,1.405,0,1,1,2.81,0c0,2.393,7.822,5.868,20.082,5.868a56.072,56.072,0,0,0,10.966-1.048,1.405,1.405,0,1,1,.549,2.756,59.005,59.005,0,0,1-11.515,1.1" transform="translate(0 -112.428)" fill="#fff"/><path d="M309.474,288.981a1.405,1.405,0,0,1-1.193-2.145l11.158-18.016a1.405,1.405,0,1,1,2.389,1.48L310.67,288.316a1.406,1.406,0,0,1-1.2.665" transform="translate(-264.683 -230.387)" fill="#fff"/><path d="M285.545,274.309c-2.461,0-4.463-2.3-4.463-5.123s2-5.125,4.463-5.125,4.463,2.3,4.463,5.125-2,5.123-4.463,5.123m0-7.438c-.781,0-1.653.951-1.653,2.315s.871,2.313,1.653,2.313,1.653-.949,1.653-2.313-.871-2.315-1.653-2.315" transform="translate(-241.496 -226.872)" fill="#fff"/><path d="M375.324,358.225c-2.461,0-4.463-2.3-4.463-5.125s2-5.123,4.463-5.123c2.5,0,4.463,2.251,4.463,5.123s-1.96,5.125-4.463,5.125m0-7.438c-.781,0-1.653.949-1.653,2.313s.871,2.315,1.653,2.315c.927,0,1.653-1.016,1.653-2.315s-.726-2.313-1.653-2.313" transform="translate(-318.631 -298.97)" fill="#fff"/></g></svg>